<?xml version="1.0" encoding="UTF-8"?>
<svg xmlns="http://www.w3.org/2000/svg" xmlns:xlink="http://www.w3.org/1999/xlink" width="32px" height="22px" viewBox="0 0 32 22" version="1.1">
<g id="surface1">
<rect x="0" y="0" width="32" height="22" style="fill:rgb(100%,100%,100%);fill-opacity:1;stroke:none;"/>
<path style=" stroke:none;fill-rule:nonzero;fill:rgb(94.509804%,35.686275%,14.509804%);fill-opacity:1;" d="M 0 0 L 32 0 L 32 7.335938 L 0 7.335938 Z M 0 0 "/>
<path style=" stroke:none;fill-rule:nonzero;fill:rgb(0%,41.176471%,20.392157%);fill-opacity:1;" d="M 0 14.664062 L 32 14.664062 L 32 22 L 0 22 Z M 0 14.664062 "/>
<path style=" stroke:none;fill-rule:nonzero;fill:rgb(17.254902%,17.254902%,43.529412%);fill-opacity:1;" d="M 19.289062 11 C 19.289062 12.875 17.8125 14.390625 16 14.390625 C 14.1875 14.390625 12.710938 12.875 12.710938 11 C 12.710938 9.125 14.1875 7.609375 16 7.609375 C 17.8125 7.609375 19.289062 9.125 19.289062 11 Z M 19.289062 11 "/>
<path style=" stroke:none;fill-rule:nonzero;fill:rgb(100%,100%,100%);fill-opacity:1;" d="M 18.84375 11 C 18.84375 12.617188 17.570312 13.929688 16 13.929688 C 14.429688 13.929688 13.15625 12.617188 13.15625 11 C 13.15625 9.382812 14.429688 8.070312 16 8.070312 C 17.570312 8.070312 18.84375 9.382812 18.84375 11 Z M 18.84375 11 "/>
<path style=" stroke:none;fill-rule:nonzero;fill:rgb(17.254902%,17.254902%,43.529412%);fill-opacity:1;" d="M 16.570312 11 C 16.570312 11.328125 16.3125 11.585938 16 11.585938 C 15.6875 11.585938 15.429688 11.328125 15.429688 11 C 15.429688 10.671875 15.6875 10.414062 16 10.414062 C 16.3125 10.414062 16.570312 10.671875 16.570312 11 Z M 16.570312 11 "/>
<path style=" stroke:none;fill-rule:nonzero;fill:rgb(17.254902%,17.254902%,43.529412%);fill-opacity:1;" d="M 16 8.070312 L 16.109375 9.828125 L 16 10.703125 L 15.890625 9.828125 Z M 16 8.070312 "/>
<path style=" stroke:none;fill-rule:nonzero;fill:rgb(17.254902%,17.254902%,43.529412%);fill-opacity:1;" d="M 16.492188 8.109375 C 16.484375 8.179688 16.421875 8.226562 16.351562 8.21875 C 16.289062 8.210938 16.242188 8.148438 16.25 8.078125 C 16.257812 8.007812 16.320312 7.953125 16.390625 7.96875 C 16.453125 7.976562 16.5 8.039062 16.492188 8.109375 Z M 16.492188 8.109375 "/>
<path style=" stroke:none;fill-rule:nonzero;fill:rgb(17.254902%,17.254902%,43.529412%);fill-opacity:1;" d="M 16 13.929688 L 15.890625 12.171875 L 16 11.296875 L 16.109375 12.171875 Z M 16 13.929688 "/>
<path style=" stroke:none;fill-rule:nonzero;fill:rgb(17.254902%,17.254902%,43.529412%);fill-opacity:1;" d="M 15.507812 13.890625 C 15.515625 13.820312 15.578125 13.773438 15.648438 13.78125 C 15.710938 13.789062 15.757812 13.851562 15.75 13.921875 C 15.742188 13.992188 15.679688 14.046875 15.609375 14.03125 C 15.546875 14.023438 15.5 13.960938 15.507812 13.890625 Z M 15.507812 13.890625 "/>
<path style=" stroke:none;fill-rule:nonzero;fill:rgb(17.254902%,17.254902%,43.529412%);fill-opacity:1;" d="M 16.734375 8.164062 L 16.398438 9.898438 L 16.070312 10.71875 L 16.1875 9.84375 Z M 16.734375 8.164062 "/>
<path style=" stroke:none;fill-rule:nonzero;fill:rgb(17.254902%,17.254902%,43.529412%);fill-opacity:1;" d="M 17.203125 8.335938 C 17.179688 8.40625 17.101562 8.4375 17.039062 8.40625 C 16.976562 8.382812 16.945312 8.304688 16.976562 8.242188 C 17 8.171875 17.070312 8.148438 17.132812 8.171875 C 17.203125 8.195312 17.226562 8.273438 17.203125 8.335938 Z M 17.203125 8.335938 "/>
<path style=" stroke:none;fill-rule:nonzero;fill:rgb(17.254902%,17.254902%,43.529412%);fill-opacity:1;" d="M 15.265625 13.835938 L 15.601562 12.101562 L 15.929688 11.28125 L 15.8125 12.15625 Z M 15.265625 13.835938 "/>
<path style=" stroke:none;fill-rule:nonzero;fill:rgb(17.254902%,17.254902%,43.529412%);fill-opacity:1;" d="M 14.796875 13.664062 C 14.820312 13.59375 14.898438 13.5625 14.960938 13.59375 C 15.023438 13.617188 15.054688 13.695312 15.023438 13.757812 C 15 13.828125 14.929688 13.851562 14.867188 13.828125 C 14.796875 13.804688 14.773438 13.726562 14.796875 13.664062 Z M 14.796875 13.664062 "/>
<path style=" stroke:none;fill-rule:nonzero;fill:rgb(17.254902%,17.254902%,43.529412%);fill-opacity:1;" d="M 17.421875 8.460938 L 16.65625 10.046875 L 16.140625 10.742188 L 16.476562 9.9375 Z M 17.421875 8.460938 "/>
<path style=" stroke:none;fill-rule:nonzero;fill:rgb(17.254902%,17.254902%,43.529412%);fill-opacity:1;" d="M 17.828125 8.75 C 17.789062 8.804688 17.710938 8.820312 17.65625 8.773438 C 17.601562 8.734375 17.59375 8.648438 17.632812 8.59375 C 17.671875 8.539062 17.75 8.523438 17.804688 8.570312 C 17.859375 8.617188 17.875 8.695312 17.828125 8.75 Z M 17.828125 8.75 "/>
<path style=" stroke:none;fill-rule:nonzero;fill:rgb(17.254902%,17.254902%,43.529412%);fill-opacity:1;" d="M 14.578125 13.539062 L 15.34375 11.953125 L 15.859375 11.257812 L 15.523438 12.0625 Z M 14.578125 13.539062 "/>
<path style=" stroke:none;fill-rule:nonzero;fill:rgb(17.254902%,17.254902%,43.529412%);fill-opacity:1;" d="M 14.171875 13.25 C 14.210938 13.195312 14.289062 13.179688 14.34375 13.226562 C 14.398438 13.265625 14.40625 13.351562 14.367188 13.40625 C 14.328125 13.460938 14.25 13.476562 14.195312 13.429688 C 14.140625 13.382812 14.125 13.304688 14.171875 13.25 Z M 14.171875 13.25 "/>
<path style=" stroke:none;fill-rule:nonzero;fill:rgb(17.254902%,17.254902%,43.529412%);fill-opacity:1;" d="M 18.007812 8.929688 L 16.875 10.25 L 16.203125 10.796875 L 16.726562 10.09375 Z M 18.007812 8.929688 "/>
<path style=" stroke:none;fill-rule:nonzero;fill:rgb(17.254902%,17.254902%,43.529412%);fill-opacity:1;" d="M 18.335938 9.3125 C 18.28125 9.359375 18.203125 9.351562 18.15625 9.289062 C 18.117188 9.234375 18.125 9.15625 18.179688 9.109375 C 18.234375 9.070312 18.3125 9.078125 18.351562 9.132812 C 18.398438 9.195312 18.390625 9.273438 18.335938 9.3125 Z M 18.335938 9.3125 "/>
<path style=" stroke:none;fill-rule:nonzero;fill:rgb(17.254902%,17.254902%,43.529412%);fill-opacity:1;" d="M 13.992188 13.070312 L 15.125 11.75 L 15.796875 11.203125 L 15.273438 11.90625 Z M 13.992188 13.070312 "/>
<path style=" stroke:none;fill-rule:nonzero;fill:rgb(17.254902%,17.254902%,43.529412%);fill-opacity:1;" d="M 13.664062 12.6875 C 13.71875 12.640625 13.796875 12.648438 13.84375 12.710938 C 13.882812 12.765625 13.875 12.84375 13.820312 12.890625 C 13.765625 12.929688 13.6875 12.921875 13.648438 12.867188 C 13.601562 12.804688 13.609375 12.726562 13.664062 12.6875 Z M 13.664062 12.6875 "/>
<path style=" stroke:none;fill-rule:nonzero;fill:rgb(17.254902%,17.254902%,43.529412%);fill-opacity:1;" d="M 18.460938 9.53125 L 17.03125 10.507812 L 16.25 10.851562 L 16.929688 10.320312 Z M 18.460938 9.53125 "/>
<path style=" stroke:none;fill-rule:nonzero;fill:rgb(17.254902%,17.254902%,43.529412%);fill-opacity:1;" d="M 18.671875 9.992188 C 18.609375 10.023438 18.539062 9.992188 18.515625 9.921875 C 18.484375 9.859375 18.515625 9.789062 18.578125 9.757812 C 18.640625 9.734375 18.71875 9.765625 18.742188 9.828125 C 18.765625 9.890625 18.742188 9.96875 18.671875 9.992188 Z M 18.671875 9.992188 "/>
<path style=" stroke:none;fill-rule:nonzero;fill:rgb(17.254902%,17.254902%,43.529412%);fill-opacity:1;" d="M 13.539062 12.46875 L 14.96875 11.492188 L 15.75 11.148438 L 15.070312 11.679688 Z M 13.539062 12.46875 "/>
<path style=" stroke:none;fill-rule:nonzero;fill:rgb(17.254902%,17.254902%,43.529412%);fill-opacity:1;" d="M 13.328125 12.007812 C 13.390625 11.976562 13.460938 12.007812 13.484375 12.070312 C 13.515625 12.140625 13.484375 12.210938 13.421875 12.242188 C 13.359375 12.265625 13.28125 12.234375 13.257812 12.171875 C 13.234375 12.109375 13.257812 12.03125 13.328125 12.007812 Z M 13.328125 12.007812 "/>
<path style=" stroke:none;fill-rule:nonzero;fill:rgb(17.254902%,17.254902%,43.529412%);fill-opacity:1;" d="M 18.75 10.242188 L 17.125 10.804688 L 16.273438 10.921875 L 17.070312 10.59375 Z M 18.75 10.242188 "/>
<path style=" stroke:none;fill-rule:nonzero;fill:rgb(17.254902%,17.254902%,43.529412%);fill-opacity:1;" d="M 18.835938 10.742188 C 18.765625 10.75 18.703125 10.703125 18.695312 10.632812 C 18.6875 10.5625 18.734375 10.5 18.804688 10.492188 C 18.875 10.484375 18.9375 10.53125 18.945312 10.601562 C 18.953125 10.671875 18.90625 10.734375 18.835938 10.742188 Z M 18.835938 10.742188 "/>
<path style=" stroke:none;fill-rule:nonzero;fill:rgb(17.254902%,17.254902%,43.529412%);fill-opacity:1;" d="M 13.25 11.757812 L 14.875 11.195312 L 15.726562 11.078125 L 14.929688 11.40625 Z M 13.25 11.757812 "/>
<path style=" stroke:none;fill-rule:nonzero;fill:rgb(17.254902%,17.254902%,43.529412%);fill-opacity:1;" d="M 13.164062 11.257812 C 13.234375 11.25 13.296875 11.296875 13.304688 11.367188 C 13.3125 11.4375 13.265625 11.5 13.195312 11.507812 C 13.125 11.515625 13.0625 11.46875 13.054688 11.398438 C 13.046875 11.328125 13.09375 11.265625 13.164062 11.257812 Z M 13.164062 11.257812 "/>
<path style=" stroke:none;fill-rule:nonzero;fill:rgb(17.254902%,17.254902%,43.529412%);fill-opacity:1;" d="M 18.84375 11 L 17.132812 11.109375 L 16.289062 11 L 17.132812 10.890625 Z M 18.84375 11 "/>
<path style=" stroke:none;fill-rule:nonzero;fill:rgb(17.254902%,17.254902%,43.529412%);fill-opacity:1;" d="M 18.804688 11.507812 C 18.734375 11.5 18.6875 11.4375 18.695312 11.367188 C 18.703125 11.296875 18.765625 11.25 18.835938 11.257812 C 18.90625 11.265625 18.953125 11.328125 18.945312 11.398438 C 18.9375 11.46875 18.875 11.515625 18.804688 11.507812 Z M 18.804688 11.507812 "/>
<path style=" stroke:none;fill-rule:nonzero;fill:rgb(17.254902%,17.254902%,43.529412%);fill-opacity:1;" d="M 13.15625 11 L 14.867188 10.890625 L 15.710938 11 L 14.867188 11.109375 Z M 13.15625 11 "/>
<path style=" stroke:none;fill-rule:nonzero;fill:rgb(17.254902%,17.254902%,43.529412%);fill-opacity:1;" d="M 13.195312 10.492188 C 13.265625 10.5 13.3125 10.5625 13.304688 10.632812 C 13.296875 10.703125 13.234375 10.75 13.164062 10.742188 C 13.09375 10.734375 13.046875 10.671875 13.054688 10.601562 C 13.0625 10.53125 13.125 10.484375 13.195312 10.492188 Z M 13.195312 10.492188 "/>
<path style=" stroke:none;fill-rule:nonzero;fill:rgb(17.254902%,17.254902%,43.529412%);fill-opacity:1;" d="M 18.75 11.757812 L 17.070312 11.40625 L 16.273438 11.078125 L 17.125 11.195312 Z M 18.75 11.757812 "/>
<path style=" stroke:none;fill-rule:nonzero;fill:rgb(17.254902%,17.254902%,43.529412%);fill-opacity:1;" d="M 18.578125 12.242188 C 18.515625 12.210938 18.484375 12.140625 18.515625 12.070312 C 18.539062 12.007812 18.609375 11.976562 18.671875 12.007812 C 18.742188 12.03125 18.765625 12.109375 18.742188 12.171875 C 18.71875 12.234375 18.640625 12.265625 18.578125 12.242188 Z M 18.578125 12.242188 "/>
<path style=" stroke:none;fill-rule:nonzero;fill:rgb(17.254902%,17.254902%,43.529412%);fill-opacity:1;" d="M 13.25 10.242188 L 14.929688 10.59375 L 15.726562 10.921875 L 14.875 10.804688 Z M 13.25 10.242188 "/>
<path style=" stroke:none;fill-rule:nonzero;fill:rgb(17.254902%,17.254902%,43.529412%);fill-opacity:1;" d="M 13.421875 9.757812 C 13.484375 9.789062 13.515625 9.859375 13.484375 9.921875 C 13.460938 9.992188 13.390625 10.023438 13.328125 9.992188 C 13.257812 9.96875 13.234375 9.890625 13.257812 9.828125 C 13.28125 9.765625 13.359375 9.734375 13.421875 9.757812 Z M 13.421875 9.757812 "/>
<path style=" stroke:none;fill-rule:nonzero;fill:rgb(17.254902%,17.254902%,43.529412%);fill-opacity:1;" d="M 18.460938 12.46875 L 16.929688 11.679688 L 16.25 11.148438 L 17.03125 11.492188 Z M 18.460938 12.46875 "/>
<path style=" stroke:none;fill-rule:nonzero;fill:rgb(17.254902%,17.254902%,43.529412%);fill-opacity:1;" d="M 18.179688 12.890625 C 18.125 12.84375 18.117188 12.765625 18.15625 12.710938 C 18.203125 12.648438 18.28125 12.640625 18.335938 12.6875 C 18.390625 12.726562 18.398438 12.804688 18.351562 12.867188 C 18.3125 12.921875 18.234375 12.929688 18.179688 12.890625 Z M 18.179688 12.890625 "/>
<path style=" stroke:none;fill-rule:nonzero;fill:rgb(17.254902%,17.254902%,43.529412%);fill-opacity:1;" d="M 13.539062 9.53125 L 15.070312 10.320312 L 15.75 10.851562 L 14.96875 10.507812 Z M 13.539062 9.53125 "/>
<path style=" stroke:none;fill-rule:nonzero;fill:rgb(17.254902%,17.254902%,43.529412%);fill-opacity:1;" d="M 13.820312 9.109375 C 13.875 9.15625 13.882812 9.234375 13.84375 9.289062 C 13.796875 9.351562 13.71875 9.359375 13.664062 9.3125 C 13.609375 9.273438 13.601562 9.195312 13.648438 9.132812 C 13.6875 9.078125 13.765625 9.070312 13.820312 9.109375 Z M 13.820312 9.109375 "/>
<path style=" stroke:none;fill-rule:nonzero;fill:rgb(17.254902%,17.254902%,43.529412%);fill-opacity:1;" d="M 18.007812 13.070312 L 16.726562 11.90625 L 16.203125 11.203125 L 16.875 11.75 Z M 18.007812 13.070312 "/>
<path style=" stroke:none;fill-rule:nonzero;fill:rgb(17.254902%,17.254902%,43.529412%);fill-opacity:1;" d="M 17.632812 13.40625 C 17.59375 13.351562 17.601562 13.265625 17.65625 13.226562 C 17.710938 13.179688 17.789062 13.195312 17.828125 13.25 C 17.875 13.304688 17.859375 13.382812 17.804688 13.429688 C 17.75 13.476562 17.671875 13.460938 17.632812 13.40625 Z M 17.632812 13.40625 "/>
<path style=" stroke:none;fill-rule:nonzero;fill:rgb(17.254902%,17.254902%,43.529412%);fill-opacity:1;" d="M 13.992188 8.929688 L 15.273438 10.09375 L 15.796875 10.796875 L 15.125 10.25 Z M 13.992188 8.929688 "/>
<path style=" stroke:none;fill-rule:nonzero;fill:rgb(17.254902%,17.254902%,43.529412%);fill-opacity:1;" d="M 14.367188 8.59375 C 14.40625 8.648438 14.398438 8.734375 14.34375 8.773438 C 14.289062 8.820312 14.210938 8.804688 14.171875 8.75 C 14.125 8.695312 14.140625 8.617188 14.195312 8.570312 C 14.25 8.523438 14.328125 8.539062 14.367188 8.59375 Z M 14.367188 8.59375 "/>
<path style=" stroke:none;fill-rule:nonzero;fill:rgb(17.254902%,17.254902%,43.529412%);fill-opacity:1;" d="M 17.421875 13.539062 L 16.476562 12.0625 L 16.140625 11.257812 L 16.65625 11.953125 Z M 17.421875 13.539062 "/>
<path style=" stroke:none;fill-rule:nonzero;fill:rgb(17.254902%,17.254902%,43.529412%);fill-opacity:1;" d="M 16.976562 13.757812 C 16.945312 13.695312 16.976562 13.617188 17.039062 13.59375 C 17.101562 13.5625 17.179688 13.59375 17.203125 13.664062 C 17.226562 13.726562 17.203125 13.804688 17.132812 13.828125 C 17.070312 13.851562 17 13.828125 16.976562 13.757812 Z M 16.976562 13.757812 "/>
<path style=" stroke:none;fill-rule:nonzero;fill:rgb(17.254902%,17.254902%,43.529412%);fill-opacity:1;" d="M 14.578125 8.460938 L 15.523438 9.9375 L 15.859375 10.742188 L 15.34375 10.046875 Z M 14.578125 8.460938 "/>
<path style=" stroke:none;fill-rule:nonzero;fill:rgb(17.254902%,17.254902%,43.529412%);fill-opacity:1;" d="M 15.023438 8.242188 C 15.054688 8.304688 15.023438 8.382812 14.960938 8.40625 C 14.898438 8.4375 14.820312 8.40625 14.796875 8.335938 C 14.773438 8.273438 14.796875 8.195312 14.867188 8.171875 C 14.929688 8.148438 15 8.171875 15.023438 8.242188 Z M 15.023438 8.242188 "/>
<path style=" stroke:none;fill-rule:nonzero;fill:rgb(17.254902%,17.254902%,43.529412%);fill-opacity:1;" d="M 16.734375 13.835938 L 16.1875 12.15625 L 16.070312 11.28125 L 16.398438 12.101562 Z M 16.734375 13.835938 "/>
<path style=" stroke:none;fill-rule:nonzero;fill:rgb(17.254902%,17.254902%,43.529412%);fill-opacity:1;" d="M 16.25 13.921875 C 16.242188 13.851562 16.289062 13.789062 16.351562 13.78125 C 16.421875 13.773438 16.484375 13.820312 16.492188 13.890625 C 16.5 13.960938 16.453125 14.023438 16.390625 14.03125 C 16.320312 14.046875 16.257812 13.992188 16.25 13.921875 Z M 16.25 13.921875 "/>
<path style=" stroke:none;fill-rule:nonzero;fill:rgb(17.254902%,17.254902%,43.529412%);fill-opacity:1;" d="M 15.265625 8.164062 L 15.8125 9.84375 L 15.929688 10.71875 L 15.601562 9.898438 Z M 15.265625 8.164062 "/>
<path style=" stroke:none;fill-rule:nonzero;fill:rgb(17.254902%,17.254902%,43.529412%);fill-opacity:1;" d="M 15.75 8.078125 C 15.757812 8.148438 15.710938 8.210938 15.648438 8.21875 C 15.578125 8.226562 15.515625 8.179688 15.507812 8.109375 C 15.5 8.039062 15.546875 7.976562 15.609375 7.96875 C 15.679688 7.953125 15.742188 8.007812 15.75 8.078125 Z M 15.75 8.078125 "/>
</g>
</svg>
